<?xml version="1.0" encoding="UTF-8"?>
<svg xmlns="http://www.w3.org/2000/svg" xmlns:xlink="http://www.w3.org/1999/xlink" width="375pt" height="374.999991pt" viewBox="0 0 375 374.999991" version="1.2">
<defs>
<clipPath id="clip1">
  <path d="M 267 74 L 362 74 L 362 140 L 267 140 Z M 267 74 "/>
</clipPath>
<clipPath id="clip2">
  <path d="M 267.648438 0 L 374.773438 107.128906 L 267.648438 214.253906 L 160.519531 107.128906 Z M 267.648438 0 "/>
</clipPath>
<clipPath id="clip3">
  <path d="M 267.648438 0 L 374.773438 107.128906 L 267.648438 214.253906 L 160.519531 107.128906 Z M 267.648438 0 "/>
</clipPath>
<clipPath id="clip4">
  <path d="M 303.765625 36.121094 L 375.839844 108.191406 L 305.402344 178.628906 L 233.328125 106.554688 Z M 303.765625 36.121094 "/>
</clipPath>
<clipPath id="clip5">
  <path d="M 303.765625 36.121094 L 374.609375 106.964844 L 304.175781 177.398438 L 233.328125 106.554688 Z M 303.765625 36.121094 "/>
</clipPath>
<clipPath id="clip6">
  <path d="M 174 74 L 268 74 L 268 140 L 174 140 Z M 174 74 "/>
</clipPath>
<clipPath id="clip7">
  <path d="M 267.648438 0 L 374.773438 107.128906 L 267.648438 214.253906 L 160.519531 107.128906 Z M 267.648438 0 "/>
</clipPath>
<clipPath id="clip8">
  <path d="M 267.648438 0 L 374.773438 107.128906 L 267.648438 214.253906 L 160.519531 107.128906 Z M 267.648438 0 "/>
</clipPath>
<clipPath id="clip9">
  <path d="M 231.691406 36.121094 L 302.125 106.554688 L 230.054688 178.628906 L 159.617188 108.191406 Z M 231.691406 36.121094 "/>
</clipPath>
<clipPath id="clip10">
  <path d="M 231.691406 36.121094 L 302.125 106.554688 L 231.117188 177.566406 L 160.679688 107.132812 Z M 231.691406 36.121094 "/>
</clipPath>
<clipPath id="clip11">
  <path d="M 195 234 L 290 234 L 290 300 L 195 300 Z M 195 234 "/>
</clipPath>
<clipPath id="clip12">
  <path d="M 195.613281 160.304688 L 302.738281 267.429688 L 195.613281 374.558594 L 88.484375 267.429688 Z M 195.613281 160.304688 "/>
</clipPath>
<clipPath id="clip13">
  <path d="M 195.613281 160.304688 L 302.738281 267.429688 L 195.613281 374.558594 L 88.484375 267.429688 Z M 195.613281 160.304688 "/>
</clipPath>
<clipPath id="clip14">
  <path d="M 231.730469 196.421875 L 303.804688 268.496094 L 233.367188 338.929688 L 161.296875 266.859375 Z M 231.730469 196.421875 "/>
</clipPath>
<clipPath id="clip15">
  <path d="M 231.730469 196.421875 L 302.574219 267.265625 L 232.140625 337.703125 L 161.296875 266.859375 Z M 231.730469 196.421875 "/>
</clipPath>
<clipPath id="clip16">
  <path d="M 102 235 L 196 235 L 196 300 L 102 300 Z M 102 235 "/>
</clipPath>
<clipPath id="clip17">
  <path d="M 195.613281 160.304688 L 302.738281 267.429688 L 195.613281 374.558594 L 88.484375 267.429688 Z M 195.613281 160.304688 "/>
</clipPath>
<clipPath id="clip18">
  <path d="M 195.613281 160.304688 L 302.738281 267.429688 L 195.613281 374.558594 L 88.484375 267.429688 Z M 195.613281 160.304688 "/>
</clipPath>
<clipPath id="clip19">
  <path d="M 159.65625 196.421875 L 230.09375 266.859375 L 158.019531 338.929688 L 87.585938 268.496094 Z M 159.65625 196.421875 "/>
</clipPath>
<clipPath id="clip20">
  <path d="M 159.65625 196.421875 L 230.09375 266.859375 L 159.082031 337.867188 L 88.644531 267.433594 Z M 159.65625 196.421875 "/>
</clipPath>
<clipPath id="clip21">
  <path d="M 235 162 L 303 162 L 303 220 L 235 220 Z M 235 162 "/>
</clipPath>
<clipPath id="clip22">
  <path d="M 160.304688 190.832031 L 237.203125 113.933594 L 314.101562 190.832031 L 237.203125 267.726562 Z M 160.304688 190.832031 "/>
</clipPath>
<clipPath id="clip23">
  <path d="M 160.304688 190.832031 L 237.203125 113.933594 L 314.101562 190.832031 L 237.203125 267.726562 Z M 160.304688 190.832031 "/>
</clipPath>
<clipPath id="clip24">
  <path d="M 172 162 L 237 162 L 237 220 L 172 220 Z M 172 162 "/>
</clipPath>
<clipPath id="clip25">
  <path d="M 160.304688 190.832031 L 237.203125 113.933594 L 314.101562 190.832031 L 237.203125 267.726562 Z M 160.304688 190.832031 "/>
</clipPath>
<clipPath id="clip26">
  <path d="M 160.304688 190.832031 L 237.203125 113.933594 L 314.101562 190.832031 L 237.203125 267.726562 Z M 160.304688 190.832031 "/>
</clipPath>
</defs>
<g id="surface1">
<g clip-path="url(#clip1)" clip-rule="nonzero">
<g clip-path="url(#clip2)" clip-rule="nonzero">
<g clip-path="url(#clip3)" clip-rule="nonzero">
<g clip-path="url(#clip4)" clip-rule="nonzero">
<g clip-path="url(#clip5)" clip-rule="nonzero">
<path style=" stroke:none;fill-rule:nonzero;fill:rgb(0%,0%,0%);fill-opacity:1;" d="M 267.726562 74.535156 L 328.660156 74.53125 C 346.679688 74.53125 361.097656 88.945312 361.097656 106.964844 C 361.097656 124.984375 346.679688 139.398438 328.660156 139.398438 L 267.726562 139.390625 L 267.726562 74.535156 "/>
</g>
</g>
</g>
</g>
</g>
<g clip-path="url(#clip6)" clip-rule="nonzero">
<g clip-path="url(#clip7)" clip-rule="nonzero">
<g clip-path="url(#clip8)" clip-rule="nonzero">
<g clip-path="url(#clip9)" clip-rule="nonzero">
<g clip-path="url(#clip10)" clip-rule="nonzero">
<path style=" stroke:none;fill-rule:nonzero;fill:rgb(0%,0%,0%);fill-opacity:1;" d="M 267.726562 139.390625 L 206.628906 139.566406 C 188.609375 139.566406 174.195312 125.148438 174.195312 107.132812 C 174.195312 89.113281 188.609375 74.695312 206.628906 74.695312 L 267.570312 74.695312 L 267.726562 139.390625 "/>
</g>
</g>
</g>
</g>
</g>
<g clip-path="url(#clip11)" clip-rule="nonzero">
<g clip-path="url(#clip12)" clip-rule="nonzero">
<g clip-path="url(#clip13)" clip-rule="nonzero">
<g clip-path="url(#clip14)" clip-rule="nonzero">
<g clip-path="url(#clip15)" clip-rule="nonzero">
<path style=" stroke:none;fill-rule:nonzero;fill:rgb(0%,0%,0%);fill-opacity:1;" d="M 195.695312 234.839844 L 256.625 234.832031 C 274.644531 234.832031 289.0625 249.25 289.0625 267.265625 C 289.0625 285.285156 274.644531 299.703125 256.625 299.703125 L 195.695312 299.695312 L 195.695312 234.839844 "/>
</g>
</g>
</g>
</g>
</g>
<g clip-path="url(#clip16)" clip-rule="nonzero">
<g clip-path="url(#clip17)" clip-rule="nonzero">
<g clip-path="url(#clip18)" clip-rule="nonzero">
<g clip-path="url(#clip19)" clip-rule="nonzero">
<g clip-path="url(#clip20)" clip-rule="nonzero">
<path style=" stroke:none;fill-rule:nonzero;fill:rgb(0%,0%,0%);fill-opacity:1;" d="M 195.695312 299.695312 L 134.59375 299.867188 C 116.574219 299.867188 102.160156 285.453125 102.160156 267.433594 C 102.160156 249.414062 116.574219 235 134.59375 235 L 195.535156 235 L 195.695312 299.695312 "/>
</g>
</g>
</g>
</g>
</g>
<g clip-path="url(#clip21)" clip-rule="nonzero">
<g clip-path="url(#clip22)" clip-rule="nonzero">
<g clip-path="url(#clip23)" clip-rule="nonzero">
<path style=" stroke:none;fill-rule:nonzero;fill:rgb(0%,0%,0%);fill-opacity:1;" d="M 273.472656 162.136719 L 235.617188 162.164062 L 236.445312 219.527344 L 273.546875 219.53125 L 273.546875 219.527344 C 280.878906 219.519531 288.214844 216.71875 293.808594 211.125 C 305.015625 199.917969 305.015625 181.742188 293.808594 170.539062 C 288.195312 164.925781 280.832031 162.125 273.472656 162.136719 Z M 273.472656 162.136719 "/>
</g>
</g>
</g>
<g clip-path="url(#clip24)" clip-rule="nonzero">
<g clip-path="url(#clip25)" clip-rule="nonzero">
<g clip-path="url(#clip26)" clip-rule="nonzero">
<path style=" stroke:none;fill-rule:nonzero;fill:rgb(0%,0%,0%);fill-opacity:1;" d="M 199.679688 162.191406 C 192.742188 162.480469 185.894531 165.242188 180.597656 170.539062 C 169.390625 181.746094 169.390625 199.914062 180.597656 211.125 C 185.894531 216.417969 192.746094 219.179688 199.683594 219.46875 L 199.683594 219.527344 L 236.445312 219.527344 L 235.617188 162.164062 Z M 199.679688 162.191406 "/>
</g>
</g>
</g>
<path style=" stroke:none;fill-rule:nonzero;fill:rgb(0%,0%,0%);fill-opacity:1;" d="M 56.957031 236.339844 C 55.929688 236.339844 54.90625 236.390625 53.886719 236.492188 C 52.867188 236.589844 51.855469 236.742188 50.847656 236.941406 C 49.84375 237.140625 48.847656 237.390625 47.867188 237.6875 C 46.886719 237.984375 45.921875 238.332031 44.972656 238.722656 C 44.027344 239.117188 43.101562 239.554688 42.195312 240.035156 C 41.292969 240.519531 40.414062 241.046875 39.5625 241.617188 C 38.707031 242.1875 37.886719 242.796875 37.09375 243.445312 C 36.300781 244.097656 35.539062 244.785156 34.816406 245.511719 C 34.089844 246.234375 33.402344 246.996094 32.753906 247.789062 C 32.101562 248.582031 31.492188 249.402344 30.921875 250.253906 C 30.351562 251.109375 29.824219 251.988281 29.34375 252.890625 C 28.859375 253.796875 28.421875 254.722656 28.027344 255.667969 C 27.636719 256.617188 27.289062 257.582031 26.992188 258.5625 C 26.695312 259.542969 26.445312 260.535156 26.246094 261.542969 C 26.046875 262.546875 25.894531 263.5625 25.796875 264.582031 C 25.695312 265.601562 25.644531 266.625 25.644531 267.652344 C 25.644531 268.675781 25.695312 269.699219 25.796875 270.71875 C 25.894531 271.742188 26.046875 272.753906 26.246094 273.761719 C 26.445312 274.765625 26.695312 275.757812 26.992188 276.742188 C 27.289062 277.722656 27.636719 278.6875 28.027344 279.632812 C 28.421875 280.582031 28.859375 281.507812 29.34375 282.410156 C 29.824219 283.316406 30.351562 284.195312 30.921875 285.046875 C 31.492188 285.898438 32.101562 286.722656 32.753906 287.515625 C 33.402344 288.308594 34.089844 289.066406 34.816406 289.792969 C 35.539062 290.515625 36.300781 291.203125 37.09375 291.855469 C 37.886719 292.503906 38.707031 293.117188 39.5625 293.6875 C 40.414062 294.253906 41.292969 294.78125 42.195312 295.265625 C 43.101562 295.75 44.027344 296.1875 44.972656 296.578125 C 45.921875 296.972656 46.886719 297.316406 47.867188 297.613281 C 48.847656 297.910156 49.84375 298.160156 50.847656 298.359375 C 51.855469 298.5625 52.867188 298.710938 53.886719 298.8125 C 54.90625 298.914062 55.929688 298.960938 56.957031 298.960938 C 57.980469 298.960938 59.003906 298.914062 60.027344 298.8125 C 61.046875 298.710938 62.058594 298.5625 63.066406 298.359375 C 64.070312 298.160156 65.0625 297.910156 66.046875 297.613281 C 67.027344 297.316406 67.992188 296.972656 68.9375 296.578125 C 69.886719 296.1875 70.8125 295.75 71.714844 295.265625 C 72.621094 294.78125 73.5 294.253906 74.351562 293.6875 C 75.203125 293.117188 76.027344 292.503906 76.820312 291.855469 C 77.613281 291.203125 78.371094 290.515625 79.097656 289.792969 C 79.820312 289.066406 80.511719 288.308594 81.160156 287.515625 C 81.8125 286.722656 82.421875 285.898438 82.992188 285.046875 C 83.5625 284.195312 84.085938 283.316406 84.570312 282.410156 C 85.054688 281.507812 85.492188 280.582031 85.882812 279.632812 C 86.277344 278.6875 86.621094 277.722656 86.917969 276.742188 C 87.21875 275.757812 87.464844 274.765625 87.667969 273.761719 C 87.867188 272.753906 88.015625 271.742188 88.117188 270.71875 C 88.21875 269.699219 88.269531 268.675781 88.269531 267.652344 C 88.269531 266.625 88.21875 265.601562 88.117188 264.582031 C 88.015625 263.5625 87.867188 262.546875 87.667969 261.542969 C 87.464844 260.535156 87.21875 259.542969 86.917969 258.5625 C 86.621094 257.582031 86.277344 256.617188 85.882812 255.667969 C 85.492188 254.722656 85.054688 253.796875 84.570312 252.890625 C 84.085938 251.988281 83.5625 251.109375 82.992188 250.253906 C 82.421875 249.402344 81.8125 248.582031 81.160156 247.789062 C 80.511719 246.996094 79.820312 246.234375 79.097656 245.511719 C 78.371094 244.785156 77.613281 244.097656 76.820312 243.445312 C 76.027344 242.796875 75.203125 242.1875 74.351562 241.617188 C 73.5 241.046875 72.621094 240.519531 71.714844 240.035156 C 70.8125 239.554688 69.886719 239.117188 68.9375 238.722656 C 67.992188 238.332031 67.027344 237.984375 66.046875 237.6875 C 65.0625 237.390625 64.070312 237.140625 63.066406 236.941406 C 62.058594 236.742188 61.046875 236.589844 60.027344 236.492188 C 59.003906 236.390625 57.980469 236.339844 56.957031 236.339844 Z M 56.957031 236.339844 "/>
<path style="fill:none;stroke-width:1;stroke-linecap:butt;stroke-linejoin:miter;stroke:rgb(0%,0%,0%);stroke-opacity:1;stroke-miterlimit:4;" d="M 0.00000366596 0.0000819645 L 5.894347 0.0000819645 " transform="matrix(0.000000000000000647,-10.561635,10.099421,0.000000000000000618,195.596828,298.95707)"/>
<path style="fill:none;stroke-width:1;stroke-linecap:butt;stroke-linejoin:miter;stroke:rgb(0%,0%,0%);stroke-opacity:1;stroke-miterlimit:4;" d="M -0.0000176037 -0.0000555805 L 5.219478 -0.0000555805 " transform="matrix(-0.000000000000045947,-10.491017,10.099421,-0.000000000000044232,237.094311,218.230284)"/>
<path style="fill:none;stroke-width:1;stroke-linecap:butt;stroke-linejoin:miter;stroke:rgb(0%,0%,0%);stroke-opacity:1;stroke-miterlimit:4;" d="M -0.000138727 0.000131728 L 5.894205 0.000131728 " transform="matrix(0.000000000000000647,-10.561635,10.099421,0.000000000000000618,267.631482,138.287597)"/>
</g>
</svg>
